<svg width="42" height="42" viewBox="0 0 42 42" fill="none" xmlns="http://www.w3.org/2000/svg">
<path d="M21 41.8333C18.1181 41.8333 15.4097 41.2861 12.875 40.1917C10.3403 39.0972 8.13542 37.6132 6.26042 35.7396C4.38542 33.8646 2.90139 31.6597 1.80833 29.125C0.715278 26.5903 0.168055 23.8819 0.166667 21C0.166667 18.1181 0.713889 15.4097 1.80833 12.875C2.90278 10.3403 4.38681 8.13542 6.26042 6.26042C8.13542 4.38542 10.3403 2.90139 12.875 1.80833C15.4097 0.715278 18.1181 0.168055 21 0.166667C23.8819 0.166667 26.5903 0.713889 29.125 1.80833C31.6597 2.90278 33.8646 4.38681 35.7396 6.26042C37.6146 8.13542 39.0993 10.3403 40.1938 12.875C41.2882 15.4097 41.8347 18.1181 41.8333 21C41.8333 23.8819 41.2861 26.5903 40.1917 29.125C39.0972 31.6597 37.6132 33.8646 35.7396 35.7396C33.8646 37.6146 31.6597 39.0993 29.125 40.1938C26.5903 41.2882 23.8819 41.8347 21 41.8333Z" fill="black"/>
</svg>
